<mxfile host="65bd71144e">
    <diagram id="JjUQ1p4wiHpUOCCI_HF2" name="Page-1">
        <mxGraphModel dx="410" dy="264" grid="1" gridSize="10" guides="1" tooltips="1" connect="1" arrows="1" fold="1" page="1" pageScale="1" pageWidth="827" pageHeight="1169" math="0" shadow="0">
            <root>
                <mxCell id="0"/>
                <mxCell id="1" parent="0"/>
                <mxCell id="2" value=".md" style="whiteSpace=wrap;html=1;shape=mxgraph.basic.document" parent="1" vertex="1">
                    <mxGeometry x="50" y="210" width="70" height="70" as="geometry"/>
                </mxCell>
                <mxCell id="3" value=".md" style="whiteSpace=wrap;html=1;shape=mxgraph.basic.document" parent="1" vertex="1">
                    <mxGeometry x="60" y="220" width="70" height="70" as="geometry"/>
                </mxCell>
                <mxCell id="4" value=".md" style="whiteSpace=wrap;html=1;shape=mxgraph.basic.document;fontSize=20;" parent="1" vertex="1">
                    <mxGeometry x="70" y="230" width="70" height="70" as="geometry"/>
                </mxCell>
                <mxCell id="5" value="/docs" style="text;html=1;strokeColor=none;fillColor=none;align=center;verticalAlign=middle;whiteSpace=wrap;rounded=0;" parent="1" vertex="1">
                    <mxGeometry x="50" y="365" width="90" height="30" as="geometry"/>
                </mxCell>
                <mxCell id="6" value="" style="shape=flexArrow;endArrow=classic;html=1;" parent="1" edge="1">
                    <mxGeometry width="50" height="50" relative="1" as="geometry">
                        <mxPoint x="170" y="264.5" as="sourcePoint"/>
                        <mxPoint x="280" y="264.5" as="targetPoint"/>
                    </mxGeometry>
                </mxCell>
                <mxCell id="8" value="Index" style="shape=cylinder3;whiteSpace=wrap;html=1;boundedLbl=1;backgroundOutline=1;size=15;fontSize=20;" parent="1" vertex="1">
                    <mxGeometry x="310" y="215" width="100" height="80" as="geometry"/>
                </mxCell>
                <mxCell id="9" value="/public/pagefind" style="text;html=1;strokeColor=none;fillColor=none;align=center;verticalAlign=middle;whiteSpace=wrap;rounded=0;" parent="1" vertex="1">
                    <mxGeometry x="315" y="365" width="90" height="30" as="geometry"/>
                </mxCell>
                <mxCell id="10" value="" style="shape=flexArrow;endArrow=classic;html=1;" parent="1" edge="1">
                    <mxGeometry width="50" height="50" relative="1" as="geometry">
                        <mxPoint x="440" y="264.5" as="sourcePoint"/>
                        <mxPoint x="550" y="264.5" as="targetPoint"/>
                    </mxGeometry>
                </mxCell>
                <mxCell id="15" value="indexing" style="text;html=1;strokeColor=none;fillColor=none;align=center;verticalAlign=middle;whiteSpace=wrap;rounded=0;fontSize=20;" parent="1" vertex="1">
                    <mxGeometry x="180" y="302.5" width="90" height="30" as="geometry"/>
                </mxCell>
                <mxCell id="16" value="search" style="text;html=1;strokeColor=none;fillColor=none;align=center;verticalAlign=middle;whiteSpace=wrap;rounded=0;fontSize=20;" parent="1" vertex="1">
                    <mxGeometry x="450" y="300" width="90" height="30" as="geometry"/>
                </mxCell>
                <mxCell id="20" value="/app/routes/resources.search/route.tsx" style="text;html=1;strokeColor=none;fillColor=none;align=center;verticalAlign=middle;whiteSpace=wrap;rounded=0;" parent="1" vertex="1">
                    <mxGeometry x="640" y="365" width="90" height="30" as="geometry"/>
                </mxCell>
                <mxCell id="13" value="Search" style="rounded=1;whiteSpace=wrap;html=1;container=0;" parent="1" vertex="1">
                    <mxGeometry x="730" y="200" width="50" height="20" as="geometry"/>
                </mxCell>
                <mxCell id="14" value="usefetcher" style="rounded=1;whiteSpace=wrap;html=1;align=left;spacingLeft=4;container=0;" parent="1" vertex="1">
                    <mxGeometry x="600" y="200" width="120" height="20" as="geometry"/>
                </mxCell>
                <mxCell id="19" value="useFetchers&lt;br&gt;&lt;br&gt;useFetcher&lt;br&gt;&lt;br&gt;..." style="rounded=0;whiteSpace=wrap;html=1;align=left;verticalAlign=top;spacingLeft=4;spacingTop=4;container=0;" parent="1" vertex="1">
                    <mxGeometry x="600" y="230" width="180" height="125" as="geometry"/>
                </mxCell>
            </root>
        </mxGraphModel>
    </diagram>
</mxfile>